<?xml version="1.0" standalone="no"?>
<svg viewBox="0 0 200 200" xmlns="http://www.w3.org/2000/svg">
  <path fill="#FFD6E8" d="M40.6,-64C54.5,-54.2,69.1,-46.2,70.8,-34.7C72.4,-23.1,61,-8,57.9,7.8C54.9,23.6,60.1,40.1,54.9,49.3C49.6,58.4,33.9,60.1,20.6,58.8C7.4,57.4,-3.4,52.9,-11.5,47C-19.6,41.1,-25,33.7,-39.1,28C-53.2,22.3,-76.1,18.3,-85.9,7.1C-95.7,-4.1,-92.6,-22.5,-81.6,-33.4C-70.6,-44.4,-51.8,-47.9,-36.9,-57.3C-22,-66.7,-11,-82,1.2,-83.8C13.3,-85.5,26.6,-73.9,40.6,-64Z" transform="translate(100 100)" />
</svg>
